<mxfile>
    <diagram id="xMdrmfYUO-kLHbfEnfK6" name="Page-1">
        <mxGraphModel dx="720" dy="463" grid="1" gridSize="10" guides="1" tooltips="1" connect="1" arrows="1" fold="1" page="1" pageScale="1" pageWidth="827" pageHeight="1169" math="0" shadow="0">
            <root>
                <mxCell id="0"/>
                <mxCell id="1" parent="0"/>
                <mxCell id="2" value="Pot" style="ellipse;whiteSpace=wrap;html=1;" parent="1" vertex="1">
                    <mxGeometry x="280" y="220" width="120" height="80" as="geometry"/>
                </mxCell>
                <mxCell id="8" style="edgeStyle=orthogonalEdgeStyle;rounded=0;orthogonalLoop=1;jettySize=auto;html=1;exitX=0.5;exitY=1;exitDx=0;exitDy=0;entryX=0.25;entryY=0;entryDx=0;entryDy=0;" parent="1" source="14" target="31" edge="1">
                    <mxGeometry relative="1" as="geometry">
                        <mxPoint x="210" y="110" as="sourcePoint"/>
                    </mxGeometry>
                </mxCell>
                <mxCell id="9" style="edgeStyle=orthogonalEdgeStyle;rounded=0;orthogonalLoop=1;jettySize=auto;html=1;exitX=0;exitY=0.75;exitDx=0;exitDy=0;entryX=0.679;entryY=-0.053;entryDx=0;entryDy=0;entryPerimeter=0;" parent="1" target="31" edge="1">
                    <mxGeometry relative="1" as="geometry">
                        <mxPoint x="520" y="100" as="sourcePoint"/>
                    </mxGeometry>
                </mxCell>
                <mxCell id="10" value="Content = 1 ETH&lt;br&gt;" style="text;html=1;strokeColor=none;fillColor=none;align=center;verticalAlign=middle;whiteSpace=wrap;rounded=0;" parent="1" vertex="1">
                    <mxGeometry x="330" y="220" width="40" height="20" as="geometry"/>
                </mxCell>
                <mxCell id="11" value="2 ETH&lt;br&gt;" style="text;html=1;strokeColor=none;fillColor=none;align=center;verticalAlign=middle;whiteSpace=wrap;rounded=0;" parent="1" vertex="1">
                    <mxGeometry x="280" y="120" width="40" height="20" as="geometry"/>
                </mxCell>
                <mxCell id="12" value="" style="shape=flexArrow;endArrow=classic;html=1;" parent="1" edge="1">
                    <mxGeometry width="50" height="50" relative="1" as="geometry">
                        <mxPoint x="230" y="170" as="sourcePoint"/>
                        <mxPoint x="280" y="120" as="targetPoint"/>
                    </mxGeometry>
                </mxCell>
                <mxCell id="19" style="edgeStyle=orthogonalEdgeStyle;rounded=0;orthogonalLoop=1;jettySize=auto;html=1;exitX=0.25;exitY=1;exitDx=0;exitDy=0;entryX=0.533;entryY=0.106;entryDx=0;entryDy=0;entryPerimeter=0;" parent="1" source="13" target="18" edge="1">
                    <mxGeometry relative="1" as="geometry"/>
                </mxCell>
                <mxCell id="13" value="Pot owner&lt;br&gt;" style="text;html=1;strokeColor=none;fillColor=none;align=center;verticalAlign=middle;whiteSpace=wrap;rounded=0;" parent="1" vertex="1">
                    <mxGeometry x="195" y="180" width="40" height="20" as="geometry"/>
                </mxCell>
                <mxCell id="14" value="player 1&lt;br&gt;" style="shape=umlActor;verticalLabelPosition=bottom;verticalAlign=top;html=1;outlineConnect=0;" parent="1" vertex="1">
                    <mxGeometry x="200" y="60" width="30" height="60" as="geometry"/>
                </mxCell>
                <mxCell id="17" value="player 2&lt;br&gt;" style="shape=umlActor;verticalLabelPosition=bottom;verticalAlign=top;html=1;outlineConnect=0;" parent="1" vertex="1">
                    <mxGeometry x="520" y="70" width="30" height="60" as="geometry"/>
                </mxCell>
                <mxCell id="21" style="edgeStyle=orthogonalEdgeStyle;rounded=0;orthogonalLoop=1;jettySize=auto;html=1;exitX=0.55;exitY=0.95;exitDx=0;exitDy=0;exitPerimeter=0;" parent="1" source="18" edge="1">
                    <mxGeometry relative="1" as="geometry">
                        <mxPoint x="30" y="230" as="targetPoint"/>
                    </mxGeometry>
                </mxCell>
                <mxCell id="26" style="edgeStyle=orthogonalEdgeStyle;rounded=0;orthogonalLoop=1;jettySize=auto;html=1;exitX=0.55;exitY=0.95;exitDx=0;exitDy=0;exitPerimeter=0;entryX=0;entryY=0.5;entryDx=0;entryDy=0;" parent="1" source="18" target="25" edge="1">
                    <mxGeometry relative="1" as="geometry"/>
                </mxCell>
                <mxCell id="28" style="edgeStyle=orthogonalEdgeStyle;rounded=0;orthogonalLoop=1;jettySize=auto;html=1;exitX=0.88;exitY=0.25;exitDx=0;exitDy=0;exitPerimeter=0;entryX=0.033;entryY=0.742;entryDx=0;entryDy=0;entryPerimeter=0;" parent="1" source="18" target="2" edge="1">
                    <mxGeometry relative="1" as="geometry"/>
                </mxCell>
                <mxCell id="18" value="Si Pot Owner pendant X nombres de blocs alors" style="ellipse;shape=cloud;whiteSpace=wrap;html=1;" parent="1" vertex="1">
                    <mxGeometry x="40" y="320" width="190" height="120" as="geometry"/>
                </mxCell>
                <mxCell id="22" style="edgeStyle=orthogonalEdgeStyle;rounded=0;orthogonalLoop=1;jettySize=auto;html=1;exitX=0.5;exitY=0;exitDx=0;exitDy=0;" parent="1" source="20" edge="1">
                    <mxGeometry relative="1" as="geometry">
                        <mxPoint x="180" y="130" as="targetPoint"/>
                    </mxGeometry>
                </mxCell>
                <mxCell id="20" value="Send 80% de Pot&lt;br&gt;" style="ellipse;whiteSpace=wrap;html=1;" parent="1" vertex="1">
                    <mxGeometry y="160" width="120" height="70" as="geometry"/>
                </mxCell>
                <mxCell id="23" value="Smart Contract Owner&lt;br&gt;" style="shape=umlActor;verticalLabelPosition=bottom;verticalAlign=top;html=1;outlineConnect=0;" parent="1" vertex="1">
                    <mxGeometry x="414" y="360" width="30" height="60" as="geometry"/>
                </mxCell>
                <mxCell id="24" value="" style="shape=flexArrow;endArrow=classic;html=1;entryX=0.401;entryY=1.045;entryDx=0;entryDy=0;entryPerimeter=0;" parent="1" target="31" edge="1">
                    <mxGeometry width="50" height="50" relative="1" as="geometry">
                        <mxPoint x="450" y="380" as="sourcePoint"/>
                        <mxPoint x="460" y="310" as="targetPoint"/>
                    </mxGeometry>
                </mxCell>
                <mxCell id="27" style="edgeStyle=orthogonalEdgeStyle;rounded=0;orthogonalLoop=1;jettySize=auto;html=1;exitX=1;exitY=0.5;exitDx=0;exitDy=0;" parent="1" source="25" edge="1">
                    <mxGeometry relative="1" as="geometry">
                        <mxPoint x="390" y="420" as="targetPoint"/>
                    </mxGeometry>
                </mxCell>
                <mxCell id="25" value="Send 10% de Pot&lt;br&gt;" style="ellipse;whiteSpace=wrap;html=1;aspect=fixed;" parent="1" vertex="1">
                    <mxGeometry x="230" y="380" width="80" height="80" as="geometry"/>
                </mxCell>
                <mxCell id="29" value="10% reste dans pot (seed)" style="text;html=1;strokeColor=none;fillColor=none;align=center;verticalAlign=middle;whiteSpace=wrap;rounded=0;" parent="1" vertex="1">
                    <mxGeometry x="180" y="310" width="90" height="20" as="geometry"/>
                </mxCell>
                <mxCell id="31" value="Contract&lt;br&gt;0x01" style="shape=process;whiteSpace=wrap;html=1;backgroundOutline=1;" parent="1" vertex="1">
                    <mxGeometry x="475" y="230" width="120" height="60" as="geometry"/>
                </mxCell>
                <mxCell id="32" value="1 ETH&lt;br&gt;" style="text;html=1;strokeColor=none;fillColor=none;align=center;verticalAlign=middle;whiteSpace=wrap;rounded=0;" parent="1" vertex="1">
                    <mxGeometry x="570" y="170" width="40" height="20" as="geometry"/>
                </mxCell>
            </root>
        </mxGraphModel>
    </diagram>
</mxfile>